<svg width="693" height="188" viewBox="0 0 693 188" fill="none" xmlns="http://www.w3.org/2000/svg">
<path d="M13.6179 109.442C13.8747 109.552 14.1314 109.661 14.396 109.774C12.9837 110.979 11.5713 112.184 10.1162 113.426C10.1162 112.045 10.9904 111.386 12.0616 110.438C12.9613 109.816 12.9613 109.816 13.6179 109.442Z" fill="#F4F4F4"/>
<path d="M0.38916 43.7188C0.778233 45.0465 0.778233 45.0465 0.778233 45.0465L0.38916 43.7188Z" fill="#FBFCFC"/>
<path d="M0 22.8071C0.389073 24.1349 0.389073 24.1349 0.389073 24.1349L0 22.8071Z" fill="#FAFAFA"/>
<path d="M0 14.8408C0.389073 16.1686 0.389073 16.1686 0.389073 16.1686L0 14.8408Z" fill="#F9F9FA"/>
<path d="M0 12.1851C0.389073 13.5128 0.389073 13.5128 0.389073 13.5128L0 12.1851Z" fill="#F8F8F9"/>
<path d="M227.997 152.262C228.775 152.594 228.775 152.594 228.775 152.594L227.997 152.262Z" fill="#FAFAFA"/>
<path d="M94.5449 128.694C95.3231 129.026 95.3231 129.026 95.3231 129.026L94.5449 128.694Z" fill="#FDFDFE"/>
<path d="M71.5894 111.434C72.3675 111.766 72.3675 111.766 72.3675 111.766L71.5894 111.434Z" fill="#FDFDFD"/>
<path d="M234.222 107.451C235 107.783 235 107.783 235 107.783L234.222 107.451Z" fill="#FCFDFD"/>
<path d="M223.088 1.02545C223.724 1.38229 223.724 1.38229 224.255 2.02126C224.387 2.90825 224.447 3.72117 224.457 4.6102C224.464 4.87481 224.471 5.13941 224.479 5.41204C224.501 6.29541 224.514 7.1787 224.527 8.06221C224.54 8.68853 224.553 9.31484 224.566 9.94115C224.695 16.5687 224.671 23.1966 224.593 29.8244C224.573 31.5241 224.563 33.2237 224.555 34.9234C224.547 36.26 224.533 37.5964 224.516 38.9328C224.509 39.5602 224.505 40.1875 224.504 40.8149C224.478 48.8399 221.44 54.313 214.786 59.9808C214.501 60.2219 214.501 60.2219 214.21 60.4678C213.62 60.9677 213.034 61.4712 212.448 61.975C212.074 62.2944 211.698 62.6136 211.323 62.9326C210.986 63.2195 210.649 63.5064 210.301 63.802C209.47 64.425 209.47 64.425 208.692 64.425C208.692 64.6441 208.692 64.8631 208.692 65.0889C208.121 65.5686 208.121 65.5686 207.33 66.1261C205.833 67.2062 204.467 68.3577 203.114 69.5687C202.467 70.0679 202.467 70.0679 201.689 70.0679C201.689 70.2869 201.689 70.506 201.689 70.7317C201.131 71.1998 201.131 71.1998 200.351 71.7483C198.736 72.9128 197.27 74.1688 195.807 75.4709C195.075 76.0427 192.778 78 192 78C192 78.2191 194.297 76.4809 194.297 76.7066C193.766 77.1513 193.766 77.1513 193.008 77.6816C191.249 78.9534 189.645 80.331 188.035 81.7374C187.196 82.4554 186.319 83.1213 185.418 83.7822C183.398 85.2738 181.555 86.9073 179.696 88.5415C179.431 88.7706 179.167 88.9997 178.895 89.2358C178.658 89.4435 178.421 89.6512 178.177 89.8652C177.566 90.3159 177.566 90.3159 176.788 90.3159C176.66 90.6445 176.531 90.9731 176.399 91.3117C175.803 91.8122 175.803 91.8122 175.037 92.349C173.463 93.4846 172.024 94.7039 170.58 95.9575C169.785 96.6227 169.785 96.6226 168.666 97.3695C167.362 98.2856 166.762 99.0028 166.548 100.458C166.477 101.936 166.535 103.002 167.256 104.361C169.743 106.642 172.005 107.698 175.667 107.969C176.493 107.993 177.316 107.997 178.143 107.993C178.452 107.994 178.762 107.996 179.08 107.997C179.745 107.999 180.41 108 181.075 108C182.13 107.999 183.186 108.004 184.241 108.009C187.24 108.024 190.239 108.033 193.238 108.035C195.078 108.037 196.919 108.045 198.759 108.057C199.457 108.06 200.154 108.061 200.851 108.059C205.616 108.047 209.528 108.291 213.405 110.928C216.277 113.398 217.703 116.329 217.88 119.765C217.895 120.011 217.909 120.256 217.924 120.509C218.079 123.331 218.094 126.154 218.095 128.979C218.097 129.545 218.098 130.112 218.099 130.679C218.102 131.854 218.102 133.03 218.102 134.205C218.102 135.707 218.107 137.209 218.114 138.711C218.118 139.876 218.119 141.041 218.119 142.206C218.119 142.76 218.121 143.314 218.124 143.868C218.128 144.641 218.127 145.413 218.124 146.185C218.125 146.623 218.126 147.061 218.126 147.512C217.985 149.309 217.843 150.573 216.282 151.858C214.464 152.564 212.957 152.574 210.982 152.559C210.396 152.563 210.396 152.563 209.799 152.567C208.509 152.572 207.22 152.568 205.931 152.564C205.03 152.565 204.13 152.566 203.229 152.568C201.341 152.57 199.453 152.567 197.565 152.561C195.156 152.553 192.748 152.558 190.339 152.566C188.478 152.57 186.617 152.569 184.756 152.565C183.869 152.564 182.981 152.566 182.094 152.569C175.761 152.586 170.104 152.535 165.116 148.736C162.246 146.161 160.469 143.163 160.338 139.597C160.316 139.071 160.316 139.071 160.294 138.534C160.266 137.797 160.239 137.059 160.212 136.322C160.19 135.797 160.19 135.797 160.168 135.261C160.156 134.941 160.144 134.62 160.132 134.291C160.093 133.424 160.424 133.952 160 133C160.256 133 160.183 132.472 160.447 132.472C160.411 130.393 160.369 128.314 160.324 126.236C160.309 125.529 160.295 124.823 160.283 124.117C160.265 123.098 160.243 122.08 160.219 121.061C160.215 120.748 160.21 120.435 160.206 120.113C160.144 117.714 160.001 115.455 158.113 113.551C158.113 113.332 158.113 113.113 158.113 112.887C156.912 112.392 155.752 112.124 154.441 111.954C154.02 111.899 154.02 111.899 153.591 111.844C150.973 111.979 149.352 113.61 147.656 115.128C147.173 115.551 146.689 115.974 146.203 116.396C145.974 116.596 145.745 116.796 145.508 117.002C144.794 117.612 144.051 118.182 143.279 118.738C141.702 119.876 140.273 121.128 138.822 122.381C137.77 123.285 136.711 124.158 135.571 124.982C133.882 126.206 132.35 127.555 130.794 128.898C129.44 130.061 128.058 131.165 126.584 132.217C125.267 133.228 124.089 134.361 122.899 135.478C121.929 136.123 121.929 136.123 120.716 136.259C119.595 136.123 119.595 136.123 118.427 135.459C118.025 134.43 117.987 133.72 117.984 132.642C117.981 132.263 117.979 131.884 117.977 131.494C117.976 131.078 117.976 130.662 117.976 130.234C117.974 129.796 117.972 129.358 117.97 128.907C117.965 127.704 117.962 126.502 117.96 125.3C117.959 124.547 117.958 123.795 117.956 123.043C117.951 120.686 117.947 118.33 117.945 115.973C117.944 113.258 117.937 110.544 117.925 107.829C117.917 105.728 117.913 103.627 117.913 101.525C117.912 100.272 117.91 99.0189 117.903 97.7656C117.896 96.5842 117.896 95.4029 117.899 94.2215C117.9 93.5868 117.894 92.952 117.889 92.3173C117.923 86.1129 120.83 82.0208 125.82 77.7024C126.106 77.4519 126.392 77.2014 126.687 76.9434C127.635 76.1148 128.587 75.2897 129.54 74.466C129.851 74.1966 130.161 73.9272 130.481 73.6497C130.919 73.2759 130.919 73.2759 131.365 72.8945C131.628 72.6695 131.89 72.4446 132.16 72.2128C132.823 71.7275 132.823 71.7275 133.601 71.7275C133.858 71.2894 134.115 70.8512 134.379 70.3998C134.636 70.3998 134.893 70.3998 135.157 70.3998C135.238 70.215 135.318 70.0301 135.401 69.8397C135.988 68.9963 136.69 68.4862 137.597 67.8908C138.53 67.2276 139.36 66.4882 140.215 65.7527C140.582 65.4381 140.949 65.1235 141.315 64.8089C141.508 64.6438 141.7 64.4786 141.898 64.3085C142.769 63.561 143.641 62.8144 144.513 62.0679C144.97 61.6768 145.426 61.2855 145.881 60.8938C150.171 57.2077 150.171 57.2077 151.859 55.9879C153.352 54.9033 154.724 53.7265 156.104 52.5389C156.341 52.3344 156.579 52.1299 156.823 51.9193C157.816 51.0634 158.806 50.2064 159.796 49.348C160.525 48.7159 161.256 48.0859 161.988 47.4561C162.325 47.1621 162.325 47.1621 162.669 46.8621C163.21 46.397 163.772 45.949 164.338 45.5047C164.595 45.5047 164.851 45.5047 165.116 45.5047C165.116 45.2856 165.116 45.0665 165.116 44.8408C165.742 44.3261 165.742 44.3261 166.575 43.7413C167.49 43.0797 168.256 42.4886 169.007 41.6875C169.918 40.7161 170.947 39.9732 172.056 39.1694C173.221 38.29 174.29 37.3385 175.363 36.3778C176.01 35.8786 176.01 35.8786 176.788 35.8786C176.878 35.6899 176.968 35.5012 177.06 35.3068C177.695 34.3584 178.472 33.7917 179.439 33.0779C180.814 32.0575 182.124 31.0124 183.402 29.9038C188.356 25.6251 188.356 25.6251 190.76 23.8862C192.068 22.8866 193.286 21.8103 194.52 20.7445C195.824 19.6234 197.169 18.5707 198.579 17.547C199.877 16.5614 201.076 15.4918 202.297 14.4377C203.344 13.5561 204.438 12.7423 205.555 11.9274C206.509 11.1999 207.404 10.4323 208.303 9.65576C209.668 8.47915 211.057 7.36064 212.533 6.28714C213.545 5.53581 214.52 4.75221 215.501 3.97137C220.412 0.175889 220.412 0.175889 223.088 1.02545Z" fill="#FEFEFE"/>
<path d="M2.71138 0C5.3833 0.00329083 6.74141 0.832459 8.68094 2.33108C9.21434 2.724 9.7478 3.11688 10.2813 3.50971C10.5117 3.68527 10.742 3.86084 10.9794 4.04173C11.6812 4.57419 11.6812 4.57419 12.537 5.07238C12.7651 5.2289 12.9932 5.38543 13.2282 5.5467C13.2282 5.76577 13.2282 5.98485 13.2282 6.21057C13.4589 6.29828 13.6896 6.386 13.9273 6.47637C14.8158 6.88894 15.3581 7.30728 16.049 7.93248C16.9946 8.76488 17.9574 9.5455 18.9914 10.2975C20.5663 11.454 22.0166 12.6999 23.4657 13.9695C24.2548 14.6271 25.0445 15.2356 25.8822 15.8445C28.2209 17.5738 30.3623 19.4779 32.536 21.3551C33.391 22.0934 34.2473 22.8306 35.1045 23.5671C35.2954 23.7328 35.4864 23.8984 35.6831 24.0691C36.6191 24.8732 37.5736 25.6342 38.6006 26.3514C39.5704 27.0409 40.3028 27.7493 41.087 28.5873C41.7037 29.185 42.3697 29.6827 43.081 30.1982C44.6036 31.3219 46.0398 32.4988 47.4586 33.7166C47.7101 33.9312 47.9617 34.1458 48.2209 34.3668C49.0419 35.0675 49.8615 35.7693 50.681 36.4711C51.2563 36.9625 51.8316 37.4538 52.4071 37.945C53.9148 39.2326 55.4213 40.5211 56.9275 41.8099C58.4595 43.1203 59.9927 44.4298 61.5257 45.7393C64.0009 47.854 66.4755 49.9692 68.9492 52.0852C69.375 52.4494 69.8009 52.8135 70.2268 53.1776C70.7847 53.6548 71.342 54.1326 71.8991 54.6104C72.6164 55.2183 73.341 55.7823 74.1181 56.3327C75.2906 57.1632 76.3507 58.0664 77.4252 58.9882C77.7152 59.2363 78.0051 59.4844 78.3039 59.74C78.6013 59.9948 78.8988 60.2495 79.2052 60.512C80.883 61.9487 82.5617 63.3847 84.2409 64.8201C85.254 65.6861 86.2666 66.5524 87.2785 67.4195C88.2612 68.2615 89.2449 69.1027 90.2292 69.9433C90.6036 70.2633 90.9776 70.5836 91.3512 70.9041C91.8717 71.3506 92.3936 71.796 92.9155 72.2413C93.212 72.495 93.5085 72.7487 93.8141 73.0101C94.5012 73.6142 94.5012 73.6142 95.3226 73.9252C95.3226 74.1443 95.3226 74.3634 95.3226 74.5891C95.8362 74.8082 96.3498 75.0273 96.8789 75.253C96.8789 75.4721 96.8789 75.6911 96.8789 75.9169C97.1357 75.9169 97.3925 75.9169 97.657 75.9169C97.657 76.1359 97.657 76.355 97.657 76.5807C97.8757 76.6603 98.0944 76.7399 98.3197 76.8219C102.422 78.7624 105.885 83.0383 107.2 86.8266C107.603 88.3788 107.822 89.8678 107.83 91.4579C107.834 92.0247 107.834 92.0247 107.839 92.603C107.84 93.0128 107.841 93.4225 107.842 93.8447C107.844 94.28 107.847 94.7152 107.85 95.1636C107.858 96.6012 107.862 98.0388 107.866 99.4764C107.867 99.9723 107.869 100.468 107.87 100.964C107.878 103.292 107.883 105.62 107.887 107.947C107.89 110.633 107.901 113.318 107.916 116.004C107.928 118.082 107.934 120.16 107.935 122.238C107.936 123.478 107.94 124.719 107.949 125.959C107.96 127.341 107.958 128.723 107.956 130.105C107.963 130.721 107.963 130.721 107.971 131.35C107.967 131.914 107.967 131.915 107.963 132.49C107.964 132.817 107.965 133.143 107.966 133.48C107.717 134.588 107.255 134.985 106.217 135.665C104.748 135.761 103.881 135.608 102.735 134.796C102.205 134.34 101.685 133.875 101.174 133.402C100.42 132.714 99.6402 132.105 98.7999 131.495C97.7934 130.757 96.8363 130 95.9062 129.192C94.9918 128.398 94.0526 127.655 93.0611 126.931C91.8119 126.014 90.6449 125.048 89.4865 124.047C88.3677 123.081 87.2459 122.147 86.0335 121.267C84.6492 120.259 83.3726 119.177 82.0941 118.073C80.3433 116.562 78.5517 115.127 76.6471 113.757C76.3938 113.569 76.1405 113.381 75.8796 113.187C73.9676 111.767 73.0782 111.285 70.4219 111.434C68.2978 111.934 67.2494 112.62 66.1564 114.191C65.2745 116.146 65.4882 118.305 65.5053 120.371C65.5022 120.887 65.4981 121.403 65.4931 121.919C65.482 123.273 65.4818 124.626 65.4845 125.98C65.4873 128.142 65.475 130.304 65.4602 132.466C65.4568 133.215 65.4588 133.965 65.4616 134.714C65.4586 139.737 64.792 144.156 60.5492 147.926C56.5927 151.037 52.5059 152.088 47.1522 152.059C46.7563 152.06 46.3603 152.062 45.9523 152.064C44.6586 152.068 43.365 152.066 42.0713 152.062C41.1661 152.063 40.261 152.064 39.3558 152.065C37.4663 152.066 35.5768 152.064 33.6872 152.06C31.2655 152.054 28.844 152.057 26.4223 152.063C24.5565 152.067 22.6907 152.066 20.8249 152.063C19.9317 152.062 19.0385 152.063 18.1453 152.066C16.8994 152.068 15.6537 152.064 14.4078 152.059C14.0395 152.061 13.6712 152.063 13.2918 152.065C10.0047 152.038 10.0047 152.038 8.55935 150.934C7.50931 149.476 7.66615 147.847 7.66817 146.188C7.66555 145.88 7.66294 145.571 7.66025 145.254C7.65286 144.235 7.65134 143.216 7.6505 142.197C7.648 141.487 7.64538 140.776 7.64265 140.065C7.63799 138.575 7.63655 137.084 7.63701 135.593C7.63709 133.691 7.62649 131.788 7.61307 129.885C7.60438 128.416 7.60284 126.947 7.60325 125.478C7.60233 124.777 7.59892 124.076 7.59287 123.375C7.55823 118.939 7.53789 114.97 10.988 111.361C14.3854 108.424 18.2828 107.684 22.965 107.647C23.6364 107.646 24.3078 107.645 24.9791 107.646C26.0478 107.648 27.1162 107.643 28.1849 107.637C30.4539 107.625 32.7229 107.62 34.992 107.617C37.6223 107.613 40.2525 107.605 42.8827 107.59C43.9297 107.586 44.9765 107.587 46.0235 107.589C52.2165 107.599 52.2165 107.599 57.4245 104.991C59.0443 103.429 59.2752 102.014 59.3318 100.003C58.8528 97.8919 56.8131 96.4099 55.0779 94.9616C54.86 94.7759 54.642 94.5902 54.4175 94.3989C53.4407 93.5743 52.4774 92.8141 51.3923 92.0909C51.124 91.9018 50.8557 91.7126 50.5792 91.5178C50.5792 91.2987 50.5792 91.0796 50.5792 90.8539C50.2375 90.725 50.2375 90.725 49.8888 90.5935C48.9572 90.1594 48.3573 89.693 47.6186 89.0451C47.3568 88.8181 47.095 88.5911 46.8253 88.3573C46.5554 88.12 46.2856 87.8827 46.0076 87.6383C44.1971 86.054 42.3659 84.533 40.3991 83.09C39.0384 82.0714 37.8003 80.9528 36.5361 79.8482C35.4455 78.9166 34.2851 78.0615 33.119 77.1999C31.7012 76.1374 30.3329 75.0307 28.9614 73.9252C28.6828 73.7019 28.4041 73.4785 28.1171 73.2484C26.7945 72.1848 25.4865 71.1125 24.2059 70.012C23.3164 69.2479 22.4146 68.5191 21.4474 67.8259C19.9072 66.6967 18.489 65.4809 17.0734 64.2395C16.3885 63.6141 16.3885 63.6141 15.5627 63.3033C15.5627 63.0843 15.5627 62.8652 15.5627 62.6395C15.3059 62.6395 15.0491 62.6395 14.7845 62.6395C14.7845 62.4204 14.7845 62.2013 14.7845 61.9756C14.5277 61.9756 14.2709 61.9756 14.0064 61.9756C14.0064 61.7565 14.0064 61.5374 14.0064 61.3117C13.7785 61.2241 13.5507 61.1365 13.316 61.0462C7.81415 58.515 3.73698 52.8888 1.87212 47.9676C0.881111 45.0547 0.663212 42.2097 0.671031 39.1903C0.669042 38.7877 0.667054 38.3851 0.665005 37.9704C0.660558 36.878 0.659564 35.7857 0.660555 34.6933C0.660974 33.7784 0.659065 32.8635 0.657207 31.9485C0.65291 29.7909 0.65271 27.6333 0.655073 25.4757C0.65743 23.2532 0.652609 21.0308 0.644346 18.8083C0.637492 16.8941 0.635157 14.9799 0.636424 13.0657C0.637128 11.9249 0.636113 10.7842 0.630699 9.64341C0.62591 8.37379 0.628517 7.10433 0.633035 5.83471C0.630062 5.45843 0.627088 5.08216 0.624023 4.69448C0.628117 4.17529 0.628117 4.17529 0.632293 3.64562C0.632228 3.34592 0.632163 3.04621 0.632096 2.73743C0.839657 1.53872 1.30965 0.431241 2.71138 0Z" fill="#FEFEFE"/>
<path d="M37.3506 81.8916C38.1287 82.2235 38.1287 82.2235 38.1287 82.2235L37.3506 81.8916Z" fill="#FEFEFE"/>
<path d="M37.3506 81.228C38.1287 81.56 38.1287 81.56 38.1287 81.56L37.3506 81.228Z" fill="#FDFCFE"/>
<path d="M21.7881 12.1851C22.5662 12.517 22.5662 12.517 22.5662 12.517L21.7881 12.1851Z" fill="#FCFEFD"/>
<path d="M285.7 153.6C277.6 153.6 270.45 151.85 264.25 148.35C258.05 144.75 253.15 139.85 249.55 133.65C246.05 127.35 244.3 120.15 244.3 112.05C244.3 103.85 246.05 96.65 249.55 90.45C253.15 84.15 258.05 79.25 264.25 75.75C270.45 72.15 277.6 70.35 285.7 70.35C293.7 70.35 300.8 72.15 307 75.75C313.2 79.25 318.05 84.15 321.55 90.45C325.15 96.65 326.95 103.85 326.95 112.05C326.95 120.15 325.2 127.35 321.7 133.65C318.2 139.85 313.35 144.75 307.15 148.35C300.95 151.85 293.8 153.6 285.7 153.6ZM285.7 140.1C290.9 140.1 295.5 138.9 299.5 136.5C303.5 134.1 306.6 130.8 308.8 126.6C311.1 122.4 312.25 117.55 312.25 112.05C312.25 106.55 311.1 101.7 308.8 97.5C306.6 93.2 303.5 89.85 299.5 87.45C295.5 85.05 290.9 83.85 285.7 83.85C280.5 83.85 275.9 85.05 271.9 87.45C267.9 89.85 264.75 93.2 262.45 97.5C260.15 101.7 259 106.55 259 112.05C259 117.55 260.15 122.4 262.45 126.6C264.75 130.8 267.9 134.1 271.9 136.5C275.9 138.9 280.5 140.1 285.7 140.1ZM383.921 153.6C376.421 153.6 369.771 151.85 363.971 148.35C358.271 144.75 353.771 139.85 350.471 133.65C347.171 127.35 345.521 120.15 345.521 112.05C345.521 103.85 347.271 96.65 350.771 90.45C354.371 84.15 359.271 79.25 365.471 75.75C371.671 72.15 378.821 70.35 386.921 70.35C394.921 70.35 402.021 72.15 408.221 75.75C414.421 79.25 419.271 84.15 422.771 90.45C426.371 96.65 428.171 103.85 428.171 112.05H419.321C419.321 120.15 417.771 127.35 414.671 133.65C411.671 139.85 407.521 144.75 402.221 148.35C396.921 151.85 390.821 153.6 383.921 153.6ZM386.621 187.05C379.521 187.05 372.871 185.65 366.671 182.85C360.471 180.05 355.221 175.95 350.921 170.55C349.621 168.85 349.121 167.1 349.421 165.3C349.821 163.5 350.821 162.05 352.421 160.95C354.221 159.75 356.071 159.35 357.971 159.75C359.971 160.15 361.571 161.15 362.771 162.75C365.471 166.15 368.871 168.8 372.971 170.7C377.071 172.6 381.721 173.55 386.921 173.55C391.721 173.55 396.121 172.4 400.121 170.1C404.221 167.8 407.471 164.4 409.871 159.9C412.271 155.4 413.471 149.9 413.471 143.4V122.1L418.421 108.9L428.171 112.05V144.45C428.171 152.35 426.421 159.5 422.921 165.9C419.421 172.4 414.521 177.55 408.221 181.35C402.021 185.15 394.821 187.05 386.621 187.05ZM386.921 140.1C392.121 140.1 396.721 138.9 400.721 136.5C404.721 134.1 407.821 130.8 410.021 126.6C412.321 122.4 413.471 117.55 413.471 112.05C413.471 106.55 412.321 101.7 410.021 97.5C407.821 93.2 404.721 89.85 400.721 87.45C396.721 85.05 392.121 83.85 386.921 83.85C381.721 83.85 377.121 85.05 373.121 87.45C369.121 89.85 365.971 93.2 363.671 97.5C361.371 101.7 360.221 106.55 360.221 112.05C360.221 117.55 361.371 122.4 363.671 126.6C365.971 130.8 369.121 134.1 373.121 136.5C377.121 138.9 381.721 140.1 386.921 140.1ZM485.141 153.6C477.841 153.6 471.291 151.8 465.491 148.2C459.691 144.5 455.091 139.55 451.691 133.35C448.391 127.05 446.741 119.95 446.741 112.05C446.741 104.15 448.541 97.05 452.141 90.75C455.841 84.45 460.791 79.5 466.991 75.9C473.291 72.2 480.341 70.35 488.141 70.35C495.941 70.35 502.941 72.2 509.141 75.9C515.341 79.5 520.241 84.45 523.841 90.75C527.541 97.05 529.391 104.15 529.391 112.05H523.541C523.541 119.95 521.841 127.05 518.441 133.35C515.141 139.55 510.591 144.5 504.791 148.2C498.991 151.8 492.441 153.6 485.141 153.6ZM488.141 140.1C493.241 140.1 497.791 138.9 501.791 136.5C505.791 134 508.941 130.65 511.241 126.45C513.541 122.15 514.691 117.35 514.691 112.05C514.691 106.65 513.541 101.85 511.241 97.65C508.941 93.35 505.791 90 501.791 87.6C497.791 85.1 493.241 83.85 488.141 83.85C483.141 83.85 478.591 85.1 474.491 87.6C470.491 90 467.291 93.35 464.891 97.65C462.591 101.85 461.441 106.65 461.441 112.05C461.441 117.35 462.591 122.15 464.891 126.45C467.291 130.65 470.491 134 474.491 136.5C478.591 138.9 483.141 140.1 488.141 140.1ZM521.741 153.15C519.541 153.15 517.691 152.45 516.191 151.05C514.791 149.55 514.091 147.7 514.091 145.5V122.55L516.941 106.65L529.391 112.05V145.5C529.391 147.7 528.641 149.55 527.141 151.05C525.741 152.45 523.941 153.15 521.741 153.15ZM582.012 153C577.012 153 572.512 151.75 568.512 149.25C564.512 146.65 561.362 143.15 559.062 138.75C556.762 134.35 555.612 129.4 555.612 123.9V52.35C555.612 50.15 556.312 48.35 557.712 46.95C559.112 45.55 560.912 44.85 563.112 44.85C565.312 44.85 567.112 45.55 568.512 46.95C569.912 48.35 570.612 50.15 570.612 52.35V123.9C570.612 127.9 571.712 131.25 573.912 133.95C576.112 136.65 578.812 138 582.012 138H587.112C588.912 138 590.412 138.7 591.612 140.1C592.912 141.5 593.562 143.3 593.562 145.5C593.562 147.7 592.712 149.5 591.012 150.9C589.412 152.3 587.312 153 584.712 153H582.012ZM548.712 86.85C546.612 86.85 544.912 86.25 543.612 85.05C542.312 83.85 541.662 82.35 541.662 80.55C541.662 78.55 542.312 76.95 543.612 75.75C544.912 74.55 546.612 73.95 548.712 73.95H583.362C585.462 73.95 587.162 74.55 588.462 75.75C589.762 76.95 590.412 78.55 590.412 80.55C590.412 82.35 589.762 83.85 588.462 85.05C587.162 86.25 585.462 86.85 583.362 86.85H548.712ZM650.917 153.6C642.617 153.6 635.217 151.85 628.717 148.35C622.317 144.75 617.267 139.85 613.567 133.65C609.967 127.35 608.167 120.15 608.167 112.05C608.167 103.85 609.867 96.65 613.267 90.45C616.767 84.15 621.567 79.25 627.667 75.75C633.767 72.15 640.767 70.35 648.667 70.35C656.467 70.35 663.167 72.1 668.767 75.6C674.367 79 678.617 83.75 681.517 89.85C684.517 95.85 686.017 102.8 686.017 110.7C686.017 112.6 685.367 114.2 684.067 115.5C682.767 116.7 681.117 117.3 679.117 117.3H618.667V105.3H678.667L672.517 109.5C672.417 104.5 671.417 100.05 669.517 96.15C667.617 92.15 664.917 89 661.417 86.7C657.917 84.4 653.667 83.25 648.667 83.25C642.967 83.25 638.067 84.5 633.967 87C629.967 89.5 626.917 92.95 624.817 97.35C622.717 101.65 621.667 106.55 621.667 112.05C621.667 117.55 622.917 122.45 625.417 126.75C627.917 131.05 631.367 134.45 635.767 136.95C640.167 139.45 645.217 140.7 650.917 140.7C654.017 140.7 657.167 140.15 660.367 139.05C663.667 137.85 666.317 136.5 668.317 135C669.817 133.9 671.417 133.35 673.117 133.35C674.917 133.25 676.467 133.75 677.767 134.85C679.467 136.35 680.367 138 680.467 139.8C680.567 141.6 679.767 143.15 678.067 144.45C674.667 147.15 670.417 149.35 665.317 151.05C660.317 152.75 655.517 153.6 650.917 153.6Z" fill="white"/>
</svg>
