<svg width="1049" height="213" viewBox="0 0 1049 213" fill="none" xmlns="http://www.w3.org/2000/svg">
<path d="M85.8432 0.00577051C87.3835 0.00320724 87.3835 0.00320724 88.9549 0.000592179C92.3881 -0.00269624 95.8212 0.00829046 99.2544 0.0192288C101.718 0.019793 104.182 0.019476 106.647 0.0183437C111.948 0.0178886 117.249 0.0235533 122.55 0.0348194C130.214 0.0510975 137.878 0.0562848 145.542 0.0587954C157.978 0.0631689 170.414 0.0764686 182.85 0.0954006C194.928 0.113768 207.006 0.127921 219.083 0.136416C219.828 0.136942 220.573 0.137467 221.341 0.138009C225.078 0.140619 228.815 0.143146 232.552 0.145632C263.538 0.166354 294.524 0.201719 325.51 0.24628C324.753 3.09214 323.988 5.93528 323.217 8.77753C323.007 9.5732 322.796 10.3689 322.579 11.1887C319.347 23.0394 313.782 33.1306 305.51 42.2463C304.772 43.0777 304.033 43.9092 303.272 44.7658C285.499 63.7029 257.983 73.2316 232.379 74.3384C230.235 74.372 228.093 74.3784 225.949 74.3723C224.745 74.3751 224.745 74.3751 223.516 74.3779C221.791 74.3819 220.066 74.384 218.34 74.3844C213.713 74.3887 209.087 74.4198 204.46 74.4455C198.591 74.4759 192.723 74.4986 186.855 74.4968C182.091 74.496 177.329 74.5193 172.566 74.5586C170.755 74.5691 168.945 74.5706 167.135 74.563C164.608 74.5534 162.082 74.5745 159.554 74.6027C158.81 74.5925 158.066 74.5823 157.3 74.5718C153.351 74.6508 151.658 75.1278 148.54 77.6351C146.352 80.4506 145.913 81.5081 146.135 84.9963C146.169 85.7749 146.202 86.5535 146.237 87.3557C146.319 89.2544 146.319 89.2544 147.51 90.2463C148.978 90.354 150.45 90.3931 151.921 90.4045C153.349 90.4192 153.349 90.4192 154.806 90.4342C156.386 90.4428 156.386 90.4428 157.997 90.4516C159.099 90.4615 160.202 90.4714 161.337 90.4816C165 90.5133 168.664 90.538 172.327 90.5627C174.859 90.5832 177.391 90.6042 179.923 90.6257C185.919 90.6753 191.915 90.7206 197.911 90.7637C204.735 90.813 211.56 90.8679 218.384 90.9234C232.426 91.0372 246.468 91.1441 260.51 91.2463C259.72 93.6603 258.926 96.0731 258.131 98.4853C257.908 99.1657 257.686 99.8462 257.457 100.547C251.85 117.498 240.849 130.874 224.964 139.125C209.689 146.741 194.981 148.368 178.061 148.422C176.676 148.433 175.291 148.444 173.906 148.456C168.065 148.508 162.226 148.557 156.385 148.572C152.795 148.582 149.206 148.612 145.617 148.654C143.599 148.672 141.582 148.669 139.565 148.666C130.704 148.685 130.704 148.685 123.51 153.246C120.732 157.595 121.478 161.401 122.51 166.246C126.115 168.649 127.717 168.489 132.001 168.473C132.655 168.474 133.309 168.474 133.983 168.474C136.142 168.473 138.301 168.457 140.46 168.442C141.958 168.438 143.455 168.435 144.953 168.433C148.894 168.425 152.834 168.406 156.775 168.384C160.797 168.363 164.819 168.354 168.841 168.344C176.731 168.322 184.621 168.288 192.51 168.246C191.557 170.18 190.601 172.111 189.644 174.042C188.846 175.656 188.846 175.656 188.031 177.303C180.464 191.949 166.733 200.835 151.627 206.287C146.179 207.812 140.588 207.558 134.973 207.569C133.098 207.583 133.098 207.583 131.186 207.599C127.772 207.623 124.359 207.638 120.945 207.647C118.807 207.653 116.668 207.661 114.53 207.67C107.823 207.697 101.115 207.716 94.408 207.724C86.6963 207.733 78.9854 207.768 71.2739 207.826C65.2923 207.869 59.3109 207.889 53.3291 207.892C49.766 207.894 46.2036 207.906 42.6407 207.942C38.6585 207.981 34.6777 207.972 30.6953 207.959C29.5338 207.978 28.3724 207.996 27.1757 208.015C18.6603 207.929 10.1195 205.911 3.91475 199.631C-1.04803 192.484 -0.366803 183.628 0.971339 175.419C2.50975 167.38 4.36351 159.409 6.19796 151.434C7.26939 146.699 8.33311 141.963 9.39718 137.227C9.662 136.055 9.92682 134.883 10.1997 133.675C12.1644 124.935 13.963 116.171 15.6932 107.382C17.6719 97.3496 19.8133 87.3557 21.9953 77.3661C22.6453 74.3887 23.2909 71.4103 23.9362 68.4318C29.0624 44.8363 34.0044 24.436 54.5105 9.24628C64.6791 3.04169 73.9922 -0.0667245 85.8432 0.00577051Z" fill="#FAFAFA"/>
<path d="M333.885 57.8711C342.306 61.0669 347.774 65.639 352.51 73.2461C353.668 76.7193 353.579 79.6068 353.51 83.2461C354.17 83.2461 354.83 83.2461 355.51 83.2461C355.874 82.1575 355.874 82.1575 356.245 81.0469C360.861 70.8303 371.869 64.9583 381.51 60.2461C382.856 59.5616 382.856 59.5616 384.229 58.8633C391.156 55.95 398.163 55.841 405.573 55.7461C406.578 55.7274 407.583 55.7087 408.619 55.6895C418.977 55.7774 428.544 58.7221 436.249 65.8555C444.132 74.0264 446.979 82.9521 446.798 94.1411C446.366 102.154 444.572 110.02 443.01 117.871C442.647 119.747 442.286 121.624 441.925 123.5C441.364 126.426 440.801 129.352 440.234 132.277C437.97 143.96 435.877 155.674 433.775 167.387C432.034 177.074 430.247 186.75 428.338 196.406C428.17 197.264 428.003 198.122 427.83 199.006C426.629 205.008 426.629 205.008 425.51 207.246C408.68 207.246 391.85 207.246 374.51 207.246C375.851 199.739 377.192 192.231 378.573 184.496C379.233 180.795 379.233 180.795 379.907 177.019C381.734 166.829 383.589 156.65 385.667 146.508C385.913 145.295 385.913 145.295 386.164 144.058C386.914 140.369 387.68 136.686 388.477 133.007C389.94 126.041 390.836 119.174 391.006 112.062C391.053 111.001 391.053 111.001 391.1 109.918C391.104 106.03 390.624 104.388 388.167 101.32C384.472 98.4353 381.369 97.8197 376.694 97.9141C371.783 98.6607 368.118 101.384 364.917 105.092C360.602 111.222 359.025 116.928 357.729 124.25C357.509 125.395 357.29 126.54 357.063 127.72C356.36 131.413 355.685 135.11 355.01 138.809C354.532 141.347 354.051 143.884 353.569 146.422C352.401 152.591 351.255 158.764 350.119 164.939C349.127 170.326 348.119 175.709 347.109 181.093C346.485 184.425 345.866 187.758 345.26 191.094C345.053 192.228 344.845 193.363 344.631 194.531C344.46 195.479 344.29 196.426 344.114 197.403C343.409 200.723 342.443 203.983 341.51 207.246C324.68 207.246 307.85 207.246 290.51 207.246C293.953 185.441 293.953 185.441 295.377 178.371C295.537 177.561 295.697 176.75 295.862 175.915C296.197 174.22 296.533 172.525 296.871 170.831C297.4 168.172 297.923 165.511 298.444 162.85C301.106 149.255 301.106 149.255 302.367 142.963C307.927 121.222 307.927 121.222 303.51 100.246C300.142 97.5994 296.651 97.763 292.51 98.2461C283.746 102.211 279.931 108.602 276.51 117.246C275.587 120.172 274.906 123.123 274.26 126.121C274.06 127.021 273.861 127.921 273.655 128.848C270.778 142.174 268.418 155.61 265.956 169.017C263.61 181.79 261.104 194.52 258.51 207.246C242.34 207.246 226.17 207.246 209.51 207.246C210.395 199.285 211.515 191.454 212.823 183.559C213.123 181.62 213.123 181.62 213.43 179.643C213.742 177.77 213.742 177.77 214.061 175.859C214.243 174.733 214.425 173.607 214.613 172.447C217.414 162.454 226.935 155.996 235.01 150.246C252.957 137.398 263.573 122.096 270.077 101.163C274.335 87.516 279.216 81.014 291.413 73.2891C296.421 69.9862 300.94 66.122 305.51 62.2461C314.243 54.8787 322.772 54.455 333.885 57.8711Z" fill="#FAFAFA"/>
<path d="M739.917 71.7071C750.579 82.0038 756.387 96.9554 756.909 111.613C756.921 113.783 756.913 115.952 756.885 118.121C756.879 119.254 756.872 120.386 756.865 121.553C756.728 130.166 756.441 139.384 752.51 147.246C750.728 147.262 750.728 147.262 748.91 147.277C737.741 147.375 726.572 147.478 715.403 147.586C709.66 147.641 703.917 147.694 698.174 147.744C692.637 147.791 687.1 147.843 681.562 147.899C679.445 147.92 677.327 147.938 675.21 147.955C672.255 147.979 669.3 148.009 666.344 148.041C665.46 148.047 664.575 148.052 663.664 148.058C659.773 147.724 659.773 147.724 656.51 149.246C656.305 155.962 658.205 161.138 662.51 166.246C670.178 173.761 680.427 173.612 690.573 173.559C691.677 173.554 692.782 173.549 693.92 173.544C711.571 173.292 729.616 169.049 745.51 161.246C744.866 164.917 744.193 168.582 743.51 172.246C743.314 173.313 743.117 174.38 742.915 175.479C738.723 197.024 738.723 197.024 733.569 201.313C729.944 203.19 726.448 204.3 722.51 205.246C720.953 205.718 719.398 206.198 717.846 206.688C692.222 214.512 661.821 214.248 637.323 202.75C622.81 194.87 612.602 183.762 607.323 168.012C600.777 145.732 604.765 119.917 615.323 99.4337C627.418 78.6073 646.422 64.9177 669.28 57.9728C693.23 52.5862 720.54 55.8147 739.917 71.7071Z" fill="#FAFAFA"/>
<path d="M1048.51 66.2461C1046.68 79.3761 1044.39 92.3066 1041.51 105.246C1040.02 104.558 1040.02 104.558 1038.5 103.855C1023.52 97.0462 1009.58 93.0727 993.01 92.9961C991.895 92.9754 990.78 92.9548 989.631 92.9336C981.629 92.8518 981.629 92.8518 974.51 96.2461C972.183 99.7373 972.007 101.138 972.51 105.246C975.179 108.466 977.575 109.944 981.506 111.273C982.477 111.603 983.447 111.933 984.447 112.273C989.467 113.868 994.508 115.366 999.573 116.809C1002.59 117.677 1005.61 118.546 1008.63 119.417C1010.52 119.961 1012.41 120.499 1014.3 121.032C1024.47 123.958 1034.14 129.026 1039.79 138.363C1045.02 148.552 1045.58 162.234 1042.6 173.309C1040.25 179.708 1037.06 185.178 1032.51 190.246C1031.99 190.849 1031.46 191.453 1030.92 192.074C1018.67 205.305 998.964 210.564 981.415 211.533C977.321 211.679 973.231 211.668 969.135 211.621C968.058 211.615 968.058 211.615 966.959 211.608C955.933 211.53 945.229 211.004 934.51 208.246C933.779 208.059 933.048 207.871 932.295 207.678C923.806 205.436 915.578 202.729 907.51 199.246C908.131 193.286 908.915 187.398 909.92 181.492C910.052 180.706 910.184 179.92 910.32 179.109C910.735 176.634 911.154 174.159 911.573 171.684C911.857 169.99 912.142 168.297 912.426 166.603C913.118 162.484 913.813 158.365 914.51 154.246C915.17 154.246 915.83 154.246 916.51 154.246C917.005 155.112 917.5 155.979 918.01 156.871C924.268 166.53 940.056 170.692 950.749 173.398C956.354 174.572 961.928 174.576 967.635 174.559C968.681 174.575 969.726 174.591 970.803 174.607C977.686 174.612 983.134 174.201 988.51 169.496C990.063 166.002 989.608 163.861 988.51 160.246C983.076 155.647 976.252 153.738 969.635 151.371C968.428 150.93 967.221 150.489 965.977 150.034C960.84 148.157 955.696 146.304 950.53 144.508C939.505 140.632 929.357 135.901 923.51 125.246C920.796 119.495 919.96 114.326 920.01 107.996C920.015 107.165 920.02 106.334 920.025 105.477C920.376 93.0133 926.112 83.2567 934.948 74.7461C965.466 49.3821 1013.74 51.7081 1048.51 66.2461Z" fill="#FAFAFA"/>
<path d="M901.51 66.246C899.935 79.3858 897.18 92.2942 894.51 105.246C893.021 104.558 893.021 104.558 891.502 103.855C882.635 99.8256 873.978 96.6257 864.51 94.246C863.916 94.0702 863.322 93.8944 862.71 93.7132C857.64 92.6363 852.296 93.0176 847.135 92.996C845.916 92.9753 844.696 92.9547 843.44 92.9335C842.259 92.9283 841.078 92.9232 839.862 92.9178C838.25 92.9038 838.25 92.9038 836.606 92.8895C833.005 93.3042 830.604 94.3838 827.51 96.246C825.943 99.38 825.659 102.878 826.51 106.246C829.931 109.412 832.92 110.971 837.377 112.246C838.504 112.574 839.63 112.901 840.79 113.239C841.976 113.571 843.163 113.904 844.385 114.246C845.599 114.597 846.812 114.948 848.062 115.31C854.395 117.13 860.744 118.836 867.135 120.433C878.727 123.48 888.154 129.759 894.502 140.058C897.156 145.817 897.872 151.26 897.823 157.496C897.815 158.615 897.815 158.615 897.808 159.756C897.677 165.945 896.76 171.448 894.51 177.246C894.035 178.503 894.035 178.503 893.549 179.785C888.314 191.778 877.619 200.245 865.625 204.992C851.597 210.117 837.711 211.639 822.823 211.558C821.77 211.556 821.77 211.556 820.696 211.553C800.952 211.467 779.27 208.661 761.51 199.246C759.819 195.864 761.219 192.193 761.874 188.59C762.026 187.732 762.178 186.874 762.334 185.989C762.658 184.173 762.985 182.357 763.316 180.542C763.82 177.759 764.31 174.974 764.797 172.187C765.113 170.425 765.43 168.664 765.749 166.902C765.894 166.066 766.04 165.229 766.191 164.367C767.281 158.476 767.281 158.476 769.51 156.246C770.418 157.112 771.325 157.978 772.26 158.871C785.808 170.34 805.147 174.404 822.448 174.496C823.411 174.517 824.375 174.537 825.368 174.558C831.977 174.595 837.472 174.187 842.448 169.371C843.829 166.609 844.179 165.292 843.51 162.246C834.75 152.485 818.722 149.059 806.708 145.035C794.318 140.758 783.078 135.317 776.573 123.433C772.748 114.252 773.003 102.641 776.073 93.246C782.846 77.7508 795.156 68.4949 810.562 62.4393C839.918 51.8561 872.909 54.222 901.51 66.246Z" fill="#FAFAFA"/>
<path d="M557.51 13.2461C575 13.2461 592.49 13.2461 610.51 13.2461C609.922 19.7186 609.38 25.6485 608.198 31.9453C608.068 32.6414 607.939 33.3374 607.806 34.0546C607.379 36.3485 606.945 38.641 606.51 40.9336C606.199 42.5986 605.888 44.2637 605.578 45.929C604.034 54.202 602.468 62.471 600.906 70.7407C599.981 75.6381 599.058 80.5358 598.135 85.4336C597.947 86.4315 597.759 87.4293 597.565 88.4575C594.581 104.305 591.729 120.174 588.948 136.059C586.045 152.636 583.084 169.2 580.01 185.746C579.838 186.676 579.666 187.605 579.489 188.563C579.009 191.156 578.526 193.748 578.042 196.34C577.9 197.103 577.759 197.866 577.614 198.652C577.059 201.599 576.46 204.397 575.51 207.246C558.02 207.246 540.53 207.246 522.51 207.246C529.879 165.336 537.442 123.468 545.137 81.6174C547.775 67.267 550.399 52.914 553.01 38.5586C553.182 37.6147 553.354 36.6708 553.531 35.6982C554.014 33.0437 554.497 30.3891 554.979 27.7344C555.12 26.9586 555.261 26.1828 555.407 25.3835C555.538 24.6592 555.67 23.9349 555.805 23.1887C555.918 22.5682 556.031 21.9476 556.147 21.3083C556.62 18.6241 557.062 15.9346 557.51 13.2461Z" fill="#FAFAFA"/>
<path d="M473.51 64.2461C490.34 64.2461 507.17 64.2461 524.51 64.2461C521.659 81.8018 518.612 99.2957 515.324 116.774C513.12 128.493 510.966 140.22 508.877 151.961C508.655 153.214 508.432 154.466 508.202 155.757C507.105 161.933 506.012 168.109 504.924 174.287C504.519 176.571 504.114 178.856 503.709 181.141C503.532 182.157 503.354 183.173 503.171 184.22C501.798 191.95 500.158 199.554 498.51 207.246C482.01 207.246 465.51 207.246 448.51 207.246C449.635 195.994 449.635 195.994 450.399 191.716C450.57 190.746 450.742 189.775 450.918 188.775C451.103 187.751 451.288 186.727 451.479 185.672C451.675 184.57 451.871 183.469 452.073 182.334C452.715 178.741 453.362 175.15 454.01 171.559C454.46 169.048 454.911 166.537 455.361 164.026C458.412 147.061 461.606 130.127 464.888 113.206C468.045 96.9234 470.88 80.6236 473.51 64.2461Z" fill="#FAFAFA"/>
<path d="M483.51 13.246C490.291 13.1701 497.072 13.1175 503.853 13.0812C506.161 13.0661 508.469 13.0456 510.776 13.0197C514.09 12.9834 517.403 12.9663 520.717 12.953C521.752 12.9376 522.786 12.9221 523.852 12.9061C524.813 12.9059 525.774 12.9057 526.763 12.9054C527.609 12.8988 528.456 12.8921 529.327 12.8853C531.51 13.246 531.51 13.246 533.309 14.55C535.345 17.4251 534.397 20.5754 533.885 23.871C533.782 24.5902 533.679 25.3093 533.572 26.0502C531.083 42.3134 531.083 42.3134 524.51 47.246C520.916 48.084 517.415 47.9455 513.741 47.832C512.187 47.8192 512.187 47.8192 510.601 47.8062C507.299 47.7727 503.999 47.6974 500.698 47.621C498.456 47.5909 496.215 47.5635 493.973 47.539C488.485 47.4729 482.998 47.3726 477.51 47.246C478.341 40.421 479.381 33.6532 480.51 26.871C480.688 25.7792 480.866 24.6873 481.049 23.5624C481.222 22.5222 481.395 21.4819 481.573 20.4101C481.729 19.466 481.885 18.5219 482.045 17.5492C482.51 15.246 482.51 15.246 483.51 13.246Z" fill="white"/>
<path d="M700.866 95.6951C705.997 99.62 709.098 104.708 710.51 110.953C710.51 112.933 710.51 114.913 710.51 116.953C694.01 116.953 677.51 116.953 660.51 116.953C660.51 109.605 661.04 105.431 666.241 100.219C675.628 92.6492 689.973 89.1363 700.866 95.6951Z" fill="#242424"/>
</svg>
