<svg width="763" height="263" viewBox="0 0 763 263" fill="none" xmlns="http://www.w3.org/2000/svg">
<path d="M54.3933 0.5C36.7233 0.5 19.0633 0.5 1.39331 0.5C2.82331 30.5 -0.516687 68.28 1.39331 97.5C3.30331 126.72 -7.21669 160.28 14.6433 181.25C36.5033 202.23 69.9433 191.2 97.3933 194.5C97.3933 178.83 97.3933 163.17 97.3933 147.5C78.0433 149.96 51.8733 150.2 54.3933 126.5C56.9133 102.8 53.0833 85.91 54.3933 63.5C55.7033 41.09 53.4033 22.56 54.3933 0.5Z" stroke="#FDFDFD" stroke-width="0.3"/>
<path d="M669.393 41.5001C676.463 41.0201 684.333 40.9401 691.393 41.5001C684.683 40.2001 676.173 40.2901 669.393 41.5001Z" stroke="#4182CD" stroke-width="0.3"/>
<path d="M105.393 111.5C105.393 115.5 105.393 119.5 105.393 123.5C105.353 159.19 133.283 189.12 167.723 195.17C202.163 201.22 244.133 188.62 257.393 153.5C243.723 149.8 231.413 142.17 218.393 136.5C205.143 162.69 159.353 160.44 154.393 129.5C188.523 127.17 223.813 129.17 258.393 128.5C267.113 84.6202 231.713 43.8702 190.393 41.5002C149.073 39.1302 105.393 67.7402 105.393 111.5ZM207.393 103.5C190.723 103.5 174.063 103.5 157.393 103.5C160.533 77.8602 205.833 76.5602 207.393 103.5Z" stroke="#FCFCFD" stroke-width="0.3"/>
<path d="M574.393 97.5C566.193 97.5 560.533 99.1099 560.393 108.5C560.263 117.9 565.743 120.5 574.393 120.5C581.663 120.5 600.363 117.22 602.393 124.5C606.613 139.61 608.113 155.69 620.393 167.5C616.973 169.28 611.573 168.5 607.393 168.5C603.973 168.5 598.953 167.43 596.393 167.5C583.813 169.06 581.023 187.59 593.393 191.5C605.913 193.74 619.633 190.79 632.393 191.5C645.153 192.21 659.323 191.33 671.393 192.5C692.893 192.5 717.623 189.86 734.143 176.25C750.673 162.64 759.753 145.19 761.393 124.5C761.773 119.66 761.653 114.35 761.393 109.5C759.353 71.9499 727.733 44.38 691.393 41.5C684.333 40.94 676.463 41.02 669.393 41.5C638.823 44.08 609.843 66.86 603.393 97.5C593.723 97.5 584.063 97.5 574.393 97.5ZM688.393 81.5C713.413 85.56 723.513 120.2 708.473 139.58C693.433 158.96 658.733 157.15 649.623 131.27C640.513 105.39 657.993 76.56 688.393 81.5Z" stroke="#77EE92" stroke-width="0.3"/>
<path d="M480.393 261.499C485.723 261.609 491.063 261.499 496.393 261.499C539.603 261.499 571.163 224.649 573.393 183.499C573.843 175.219 572.643 166.759 573.393 158.499C561.933 158.479 528.143 165.099 528.403 146.489C528.653 127.879 562.413 135.319 574.393 134.499C574.393 130.169 574.393 125.829 574.393 121.499C574.393 120.999 574.393 120.499 574.393 120.499C565.743 120.499 560.263 117.899 560.393 108.499C560.533 99.1094 566.193 97.4994 574.393 97.4994C574.393 80.8294 574.393 64.1694 574.393 47.4994C567.203 47.9294 558.423 46.9294 551.393 47.4994C544.363 48.0694 535.763 44.7794 532.393 51.4994C482.273 25.3594 419.173 57.8394 414.393 114.499C409.613 171.159 472.303 216.079 522.393 182.499C526.723 218.279 471.353 230.909 457.393 199.499C442.533 204.819 429.063 214.039 414.393 220.499C426.423 245.449 453.243 260.959 480.393 261.499ZM498.393 89.4994C520.243 93.0494 528.973 120.459 515.623 136.729C502.273 152.999 474.443 151.149 465.473 130.419C456.503 109.699 475.023 85.6994 498.393 89.4994Z" stroke="#FCFCFD" stroke-width="0.3"/>
<path d="M271.393 89.4999C296.393 89.4999 321.393 89.4999 346.393 89.4999C324.543 105.68 302.593 114.03 279.643 129.75C256.693 145.47 262.213 191.93 295.723 192.17C329.233 192.41 367.363 192.67 401.393 192.5C401.393 178.5 401.393 164.5 401.393 150.5C375.393 150.5 349.393 150.5 323.393 150.5C328.493 146.42 329.873 145.92 336.163 142.27C342.453 138.62 341.013 138.71 349.163 134.27C357.313 129.83 367.113 123.12 375.313 118.42C383.513 113.73 393.793 108.42 398.473 99.5799C403.143 90.7299 402.233 92.3599 403.393 83.4999C404.553 74.6399 403.463 75.0699 400.313 65.5799C397.173 56.0899 384.703 49.3699 375.463 48.4299C366.233 47.4899 363.443 47.2099 355.393 47.4999C347.343 47.7899 341.693 47.1299 334.393 47.4999C327.093 47.8699 320.163 46.7899 313.393 47.4999C306.623 48.2099 298.473 45.9799 292.393 47.4999C286.313 49.0199 276.163 44.1599 271.393 47.4999C271.393 61.4999 271.393 75.4999 271.393 89.4999Z" stroke="#FCFCFD" stroke-width="0.3"/>
<path d="M688.393 81.5006C657.993 76.5606 640.513 105.391 649.623 131.271C658.733 157.151 693.433 158.961 708.473 139.581C723.513 120.201 713.413 85.5606 688.393 81.5006Z" stroke="#3F59E8" stroke-width="0.3"/>
<path d="M207.393 103.5C205.833 76.5598 160.533 77.8598 157.393 103.5C174.063 103.5 190.723 103.5 207.393 103.5Z" stroke="#445CE5" stroke-width="0.3"/>
<path d="M498.393 89.4997C475.023 85.6997 456.503 109.7 465.473 130.42C474.443 151.15 502.273 153 515.623 136.73C528.973 120.46 520.243 93.0497 498.393 89.4997Z" stroke="#4057E6" stroke-width="0.3"/>
<path d="M761.393 124.5C762.323 119.67 762.183 114.38 761.393 109.5C761.653 114.35 761.773 119.66 761.393 124.5Z" stroke="#5694D2" stroke-width="0.3"/>
<path d="M105.393 123.5C105.393 119.5 105.393 115.5 105.393 111.5C105.033 115.21 105.023 119.73 105.393 123.5Z" stroke="#ADB5F3" stroke-width="0.3"/>
<path d="M574.393 121.501C583.393 121.501 592.393 121.501 601.393 121.501C600.733 122.821 602.093 123.781 602.393 124.501C600.363 117.221 581.663 120.501 574.393 120.501C574.393 120.501 574.393 121.001 574.393 121.501Z" stroke="#5EA3C5" stroke-width="0.3"/>
<path d="M574.393 134.5C562.413 135.32 528.653 127.88 528.403 146.49C528.143 165.1 561.933 158.48 573.393 158.5C573.893 158.5 574.393 158.5 574.393 158.5C584.353 158.5 595.003 158.01 594.393 145.5C593.773 133 583.793 133.86 574.393 134.5Z" stroke="#7AED95" stroke-width="0.3"/>
<path d="M671.393 192.5C659.323 191.33 645.153 192.21 632.393 191.5C619.633 190.79 605.913 193.74 593.393 191.5C604.853 195.12 619.803 191.66 632.393 192.5C644.983 193.34 658.703 192.5 671.393 192.5Z" stroke="#609FC3" stroke-width="0.3"/>
<path d="M496.393 261.5C491.063 261.5 485.723 261.61 480.393 261.5C485.423 262.11 491.323 261.99 496.393 261.5Z" stroke="#A1ADEE" stroke-width="0.3"/>
<path d="M54.3933 0.5C36.7233 0.5 19.0633 0.5 1.39331 0.5C2.82331 30.5 -0.516687 68.28 1.39331 97.5C3.30331 126.72 -7.21669 160.28 14.6433 181.25C36.5033 202.23 69.9433 191.2 97.3933 194.5C97.3933 178.83 97.3933 163.17 97.3933 147.5C78.0433 149.96 51.8733 150.2 54.3933 126.5C56.9133 102.8 53.0833 85.91 54.3933 63.5C55.7033 41.09 53.4033 22.56 54.3933 0.5Z" fill="#FDFDFD" stroke="black"/>
<path d="M669.393 41.5001C676.463 41.0201 684.333 40.9401 691.393 41.5001C684.683 40.2001 676.173 40.2901 669.393 41.5001Z" fill="#4182CD" stroke="black"/>
<path d="M105.393 111.5C105.393 115.5 105.393 119.5 105.393 123.5C105.353 159.19 133.283 189.12 167.723 195.17C202.163 201.22 244.133 188.62 257.393 153.5C243.723 149.8 231.413 142.17 218.393 136.5C205.143 162.69 159.353 160.44 154.393 129.5C188.523 127.17 223.813 129.17 258.393 128.5C267.113 84.6202 231.713 43.8702 190.393 41.5002C149.073 39.1302 105.393 67.7402 105.393 111.5ZM207.393 103.5C190.723 103.5 174.063 103.5 157.393 103.5C160.533 77.8602 205.833 76.5602 207.393 103.5Z" fill="#FCFCFD" stroke="black"/>
<path d="M574.393 97.5C566.193 97.5 560.533 99.1099 560.393 108.5C560.263 117.9 565.743 120.5 574.393 120.5C581.663 120.5 600.363 117.22 602.393 124.5C606.613 139.61 608.113 155.69 620.393 167.5C616.973 169.28 611.573 168.5 607.393 168.5C603.973 168.5 598.953 167.43 596.393 167.5C583.813 169.06 581.023 187.59 593.393 191.5C605.913 193.74 619.633 190.79 632.393 191.5C645.153 192.21 659.323 191.33 671.393 192.5C692.893 192.5 717.623 189.86 734.143 176.25C750.673 162.64 759.753 145.19 761.393 124.5C761.773 119.66 761.653 114.35 761.393 109.5C759.353 71.9499 727.733 44.38 691.393 41.5C684.333 40.94 676.463 41.02 669.393 41.5C638.823 44.08 609.843 66.86 603.393 97.5C593.723 97.5 584.063 97.5 574.393 97.5ZM688.393 81.5C713.413 85.56 723.513 120.2 708.473 139.58C693.433 158.96 658.733 157.15 649.623 131.27C640.513 105.39 657.993 76.56 688.393 81.5Z" fill="#77EE92" stroke="black"/>
<path d="M480.393 261.499C485.723 261.609 491.063 261.499 496.393 261.499C539.603 261.499 571.163 224.649 573.393 183.499C573.843 175.219 572.643 166.759 573.393 158.499C561.933 158.479 528.143 165.099 528.403 146.489C528.653 127.879 562.413 135.319 574.393 134.499C574.393 130.169 574.393 125.829 574.393 121.499C574.393 120.999 574.393 120.499 574.393 120.499C565.743 120.499 560.263 117.899 560.393 108.499C560.533 99.1094 566.193 97.4994 574.393 97.4994C574.393 80.8294 574.393 64.1694 574.393 47.4994C567.203 47.9294 558.423 46.9294 551.393 47.4994C544.363 48.0694 535.763 44.7794 532.393 51.4994C482.273 25.3594 419.173 57.8394 414.393 114.499C409.613 171.159 472.303 216.079 522.393 182.499C526.723 218.279 471.353 230.909 457.393 199.499C442.533 204.819 429.063 214.039 414.393 220.499C426.423 245.449 453.243 260.959 480.393 261.499ZM498.393 89.4994C520.243 93.0494 528.973 120.459 515.623 136.729C502.273 152.999 474.443 151.149 465.473 130.419C456.503 109.699 475.023 85.6994 498.393 89.4994Z" fill="#FCFCFD" stroke="black"/>
<path d="M271.393 89.4999C296.393 89.4999 321.393 89.4999 346.393 89.4999C324.543 105.68 302.593 114.03 279.643 129.75C256.693 145.47 262.213 191.93 295.723 192.17C329.233 192.41 367.363 192.67 401.393 192.5C401.393 178.5 401.393 164.5 401.393 150.5C375.393 150.5 349.393 150.5 323.393 150.5C328.493 146.42 329.873 145.92 336.163 142.27C342.453 138.62 341.013 138.71 349.163 134.27C357.313 129.83 367.113 123.12 375.313 118.42C383.513 113.73 393.793 108.42 398.473 99.5799C403.143 90.7299 402.233 92.3599 403.393 83.4999C404.553 74.6399 403.463 75.0699 400.313 65.5799C397.173 56.0899 384.703 49.3699 375.463 48.4299C366.233 47.4899 363.443 47.2099 355.393 47.4999C347.343 47.7899 341.693 47.1299 334.393 47.4999C327.093 47.8699 320.163 46.7899 313.393 47.4999C306.623 48.2099 298.473 45.9799 292.393 47.4999C286.313 49.0199 276.163 44.1599 271.393 47.4999C271.393 61.4999 271.393 75.4999 271.393 89.4999Z" fill="#FCFCFD" stroke="black"/>
<path d="M761.393 124.5C762.323 119.67 762.183 114.38 761.393 109.5C761.653 114.35 761.773 119.66 761.393 124.5Z" fill="#5694D2" stroke="black"/>
<path d="M105.393 123.5C105.393 119.5 105.393 115.5 105.393 111.5C105.033 115.21 105.023 119.73 105.393 123.5Z" fill="#ADB5F3" stroke="black"/>
<path d="M574.393 134.5C562.413 135.32 528.653 127.88 528.403 146.49C528.143 165.1 561.933 158.48 573.393 158.5C573.893 158.5 574.393 158.5 574.393 158.5C584.353 158.5 595.003 158.01 594.393 145.5C593.773 133 583.793 133.86 574.393 134.5Z" fill="#7AED95" stroke="black"/>
<path d="M496.393 261.5C491.063 261.5 485.723 261.61 480.393 261.5C485.423 262.11 491.323 261.99 496.393 261.5Z" fill="#A1ADEE" stroke="black"/>
</svg>
