<svg width="693" height="188" viewBox="0 0 693 188" fill="none" xmlns="http://www.w3.org/2000/svg">
<path d="M2 0H24L116 78V132L2 38V0ZM233 0H211L119 78V132L233 38V0ZM8 111H64V152H8V111ZM171 111H227V152H171V111ZM69 111H96L116 128V152H82L69 141V111ZM139 111H166V141L153 152H119V128L139 111Z" fill="white"/>
<path d="M285.7 153.6C277.6 153.6 270.45 151.85 264.25 148.35C258.05 144.75 253.15 139.85 249.55 133.65C246.05 127.35 244.3 120.15 244.3 112.05C244.3 103.85 246.05 96.65 249.55 90.45C253.15 84.15 258.05 79.25 264.25 75.75C270.45 72.15 277.6 70.35 285.7 70.35C293.7 70.35 300.8 72.15 307 75.75C313.2 79.25 318.05 84.15 321.55 90.45C325.15 96.65 326.95 103.85 326.95 112.05C326.95 120.15 325.2 127.35 321.7 133.65C318.2 139.85 313.35 144.75 307.15 148.35C300.95 151.85 293.8 153.6 285.7 153.6ZM285.7 140.1C290.9 140.1 295.5 138.9 299.5 136.5C303.5 134.1 306.6 130.8 308.8 126.6C311.1 122.4 312.25 117.55 312.25 112.05C312.25 106.55 311.1 101.7 308.8 97.5C306.6 93.2 303.5 89.85 299.5 87.45C295.5 85.05 290.9 83.85 285.7 83.85C280.5 83.85 275.9 85.05 271.9 87.45C267.9 89.85 264.75 93.2 262.45 97.5C260.15 101.7 259 106.55 259 112.05C259 117.55 260.15 122.4 262.45 126.6C264.75 130.8 267.9 134.1 271.9 136.5C275.9 138.9 280.5 140.1 285.7 140.1ZM383.921 153.6C376.421 153.6 369.771 151.85 363.971 148.35C358.271 144.75 353.771 139.85 350.471 133.65C347.171 127.35 345.521 120.15 345.521 112.05C345.521 103.85 347.271 96.65 350.771 90.45C354.371 84.15 359.271 79.25 365.471 75.75C371.671 72.15 378.821 70.35 386.921 70.35C394.921 70.35 402.021 72.15 408.221 75.75C414.421 79.25 419.271 84.15 422.771 90.45C426.371 96.65 428.171 103.85 428.171 112.05H419.321C419.321 120.15 417.771 127.35 414.671 133.65C411.671 139.85 407.521 144.75 402.221 148.35C396.921 151.85 390.821 153.6 383.921 153.6ZM386.621 187.05C379.521 187.05 372.871 185.65 366.671 182.85C360.471 180.05 355.221 175.95 350.921 170.55C349.621 168.85 349.121 167.1 349.421 165.3C349.821 163.5 350.821 162.05 352.421 160.95C354.221 159.75 356.071 159.35 357.971 159.75C359.971 160.15 361.571 161.15 362.771 162.75C365.471 166.15 368.871 168.8 372.971 170.7C377.071 172.6 381.721 173.55 386.921 173.55C391.721 173.55 396.121 172.4 400.121 170.1C404.221 167.8 407.471 164.4 409.871 159.9C412.271 155.4 413.471 149.9 413.471 143.4V122.1L418.421 108.9L428.171 112.05V144.45C428.171 152.35 426.421 159.5 422.921 165.9C419.421 172.4 414.521 177.55 408.221 181.35C402.021 185.15 394.821 187.05 386.621 187.05ZM386.921 140.1C392.121 140.1 396.721 138.9 400.721 136.5C404.721 134.1 407.821 130.8 410.021 126.6C412.321 122.4 413.471 117.55 413.471 112.05C413.471 106.55 412.321 101.7 410.021 97.5C407.821 93.2 404.721 89.85 400.721 87.45C396.721 85.05 392.121 83.85 386.921 83.85C381.721 83.85 377.121 85.05 373.121 87.45C369.121 89.85 365.971 93.2 363.671 97.5C361.371 101.7 360.221 106.55 360.221 112.05C360.221 117.55 361.371 122.4 363.671 126.6C365.971 130.8 369.121 134.1 373.121 136.5C377.121 138.9 381.721 140.1 386.921 140.1ZM485.141 153.6C477.841 153.6 471.291 151.8 465.491 148.2C459.691 144.5 455.091 139.55 451.691 133.35C448.391 127.05 446.741 119.95 446.741 112.05C446.741 104.15 448.541 97.05 452.141 90.75C455.841 84.45 460.791 79.5 466.991 75.9C473.291 72.2 480.341 70.35 488.141 70.35C495.941 70.35 502.941 72.2 509.141 75.9C515.341 79.5 520.241 84.45 523.841 90.75C527.541 97.05 529.391 104.15 529.391 112.05H523.541C523.541 119.95 521.841 127.05 518.441 133.35C515.141 139.55 510.591 144.5 504.791 148.2C498.991 151.8 492.441 153.6 485.141 153.6ZM488.141 140.1C493.241 140.1 497.791 138.9 501.791 136.5C505.791 134 508.941 130.65 511.241 126.45C513.541 122.15 514.691 117.35 514.691 112.05C514.691 106.65 513.541 101.85 511.241 97.65C508.941 93.35 505.791 90 501.791 87.6C497.791 85.1 493.241 83.85 488.141 83.85C483.141 83.85 478.591 85.1 474.491 87.6C470.491 90 467.291 93.35 464.891 97.65C462.591 101.85 461.441 106.65 461.441 112.05C461.441 117.35 462.591 122.15 464.891 126.45C467.291 130.65 470.491 134 474.491 136.5C478.591 138.9 483.141 140.1 488.141 140.1ZM521.741 153.15C519.541 153.15 517.691 152.45 516.191 151.05C514.791 149.55 514.091 147.7 514.091 145.5V122.55L516.941 106.65L529.391 112.05V145.5C529.391 147.7 528.641 149.55 527.141 151.05C525.741 152.45 523.941 153.15 521.741 153.15ZM582.012 153C577.012 153 572.512 151.75 568.512 149.25C564.512 146.65 561.362 143.15 559.062 138.75C556.762 134.35 555.612 129.4 555.612 123.9V52.35C555.612 50.15 556.312 48.35 557.712 46.95C559.112 45.55 560.912 44.85 563.112 44.85C565.312 44.85 567.112 45.55 568.512 46.95C569.912 48.35 570.612 50.15 570.612 52.35V123.9C570.612 127.9 571.712 131.25 573.912 133.95C576.112 136.65 578.812 138 582.012 138H587.112C588.912 138 590.412 138.7 591.612 140.1C592.912 141.5 593.562 143.3 593.562 145.5C593.562 147.7 592.712 149.5 591.012 150.9C589.412 152.3 587.312 153 584.712 153H582.012ZM548.712 86.85C546.612 86.85 544.912 86.25 543.612 85.05C542.312 83.85 541.662 82.35 541.662 80.55C541.662 78.55 542.312 76.95 543.612 75.75C544.912 74.55 546.612 73.95 548.712 73.95H583.362C585.462 73.95 587.162 74.55 588.462 75.75C589.762 76.95 590.412 78.55 590.412 80.55C590.412 82.35 589.762 83.85 588.462 85.05C587.162 86.25 585.462 86.85 583.362 86.85H548.712ZM650.917 153.6C642.617 153.6 635.217 151.85 628.717 148.35C622.317 144.75 617.267 139.85 613.567 133.65C609.967 127.35 608.167 120.15 608.167 112.05C608.167 103.85 609.867 96.65 613.267 90.45C616.767 84.15 621.567 79.25 627.667 75.75C633.767 72.15 640.767 70.35 648.667 70.35C656.467 70.35 663.167 72.1 668.767 75.6C674.367 79 678.617 83.75 681.517 89.85C684.517 95.85 686.017 102.8 686.017 110.7C686.017 112.6 685.367 114.2 684.067 115.5C682.767 116.7 681.117 117.3 679.117 117.3H618.667V105.3H678.667L672.517 109.5C672.417 104.5 671.417 100.05 669.517 96.15C667.617 92.15 664.917 89 661.417 86.7C657.917 84.4 653.667 83.25 648.667 83.25C642.967 83.25 638.067 84.5 633.967 87C629.967 89.5 626.917 92.95 624.817 97.35C622.717 101.65 621.667 106.55 621.667 112.05C621.667 117.55 622.917 122.45 625.417 126.75C627.917 131.05 631.367 134.45 635.767 136.95C640.167 139.45 645.217 140.7 650.917 140.7C654.017 140.7 657.167 140.15 660.367 139.05C663.667 137.85 666.317 136.5 668.317 135C669.817 133.9 671.417 133.35 673.117 133.35C674.917 133.25 676.467 133.75 677.767 134.85C679.467 136.35 680.367 138 680.467 139.8C680.567 141.6 679.767 143.15 678.067 144.45C674.667 147.15 670.417 149.35 665.317 151.05C660.317 152.75 655.517 153.6 650.917 153.6Z" fill="white"/>
</svg>
